Coordinates
version=1
nRows=7
nColumns=40
inDegrees=yes

Units are S.I. units (second, meters, Newtons, ...)
Angles are in degrees.

endheader
time	pelvis_tilt	pelvis_list	pelvis_rotation	pelvis_tx	pelvis_ty	pelvis_tz	hip_flexion_r	hip_adduction_r	hip_rotation_r	knee_angle_r	knee_angle_r_beta	ankle_angle_r	subtalar_angle_r	mtp_angle_r	hip_flexion_l	hip_adduction_l	hip_rotation_l	knee_angle_l	knee_angle_l_beta	ankle_angle_l	subtalar_angle_l	mtp_angle_l	lumbar_extension	lumbar_bending	lumbar_rotation	arm_flex_r	arm_add_r	arm_rot_r	elbow_flex_r	pro_sup_r	wrist_flex_r	wrist_dev_r	arm_flex_l	arm_add_l	arm_rot_l	elbow_flex_l	pro_sup_l	wrist_flex_l	wrist_dev_l
     34.15000000	     -3.63066108	     -5.46186447	     -1.99734785	      0.85589923	      0.93402840	      0.43960157	     30.33967341	     -4.03338945	     -6.57849420	     56.98702859	     56.98702859	      4.61319075	    -15.47730966	      1.85877622	     13.40900773	     -5.38955596	     -7.68734406	     21.69571748	     21.69571748	     14.37483681	     -9.97114295	     -0.40915567	    -10.50790858	      6.29944776	      0.55244283	     -3.21589388	    -14.17067024	     -1.21806520	     34.93658536	     45.76285975	      0.00000000	      0.00000000	      2.45674688	    -15.23432160	     -1.83489221	     59.51467156	     46.41330121	      0.00000000	      0.00000000
     34.16292857	     -3.87197742	     -5.49939774	     -2.24743560	      0.85367145	      0.93404173	      0.43943607	     30.88544597	     -3.81465553	     -6.76249190	     54.11249449	     54.11249449	      4.95925206	    -14.78068679	      1.88783053	     13.14496925	     -5.41612763	     -7.87377781	     21.39134331	     21.39134331	     14.49003456	     -9.95215483	     -0.41615185	    -10.38050442	      6.31799039	      0.27278628	     -4.24940394	    -13.94906992	     -1.12226514	     34.38011406	     45.77217665	      0.00000000	      0.00000000	      3.18629469	    -15.57646199	     -2.03410751	     59.89474226	     46.44206366	      0.00000000	      0.00000000
     34.17585714	     -3.95796486	     -5.59969480	     -2.49805725	      0.85164203	      0.93431278	      0.43927515	     31.00010638	     -3.49010841	     -7.00057711	     50.82256846	     50.82256846	      5.15410800	    -14.01826903	      1.76038693	     12.64785001	     -5.50432434	     -8.11648893	     20.99789674	     20.99789674	     14.60066387	     -9.82163897	     -0.43608612	    -10.45933702	      6.42161732	      0.30802017	     -5.34619718	    -13.87335041	     -1.02570178	     33.70340903	     45.78636786	      0.00000000	      0.00000000	      4.03411300	    -15.65644468	     -2.20831926	     60.64108850	     46.47665340	      0.00000000	      0.00000000
     34.18878571	     -3.99554033	     -5.61559491	     -2.78882656	      0.84967697	      0.93452089	      0.43928343	     30.93309492	     -3.19060733	     -7.16437192	     47.32255023	     47.32255023	      5.07535736	    -13.19711738	      1.17906227	     12.11188675	     -5.54129411	     -8.51378304	     20.64467312	     20.64467312	     14.74172417	     -9.54920639	     -0.58118062	    -10.59801078	      6.35871894	      0.47965877	     -6.45021686	    -13.73017715	     -0.95925834	     33.00768619	     45.80404692	      0.00000000	      0.00000000	      4.88863119	    -15.82697129	     -2.39049499	     61.72522177	     46.52221832	      0.00000000	      0.00000000
     34.20171429	     -4.11996596	     -5.66962799	     -3.00028815	      0.84773826	      0.93450801	      0.43922654	     30.79323312	     -2.87928112	     -7.48111183	     43.60775891	     43.60775891	      4.96483146	    -12.17530786	      1.04864215	     11.72332652	     -5.60091553	     -8.77251068	     20.35888715	     20.35888715	     14.89850085	     -9.36197680	     -0.70172693	    -10.60146131	      6.39808154	      0.31633798	     -7.41846222	    -13.64840375	     -0.95215632	     32.59413247	     45.81420660	      0.00000000	      0.00000000	      5.52989243	    -16.02917445	     -2.53418866	     62.53958036	     46.55588050	      0.00000000	      0.00000000
     34.21464286	     -4.31048753	     -5.63558782	     -3.24803895	      0.84584862	      0.93421272	      0.43938020	     30.68449460	     -2.59415262	     -7.73218445	     39.88623444	     39.88623444	      4.92548755	    -10.97944089	      1.08334482	     11.41725263	     -5.58129458	     -9.06740769	     20.09021112	     20.09021112	     15.06417844	     -9.18413442	     -0.83073269	    -10.49957712	      6.29464444	      0.18350658	     -8.33404452	    -13.45373795	     -0.93876799	     32.28507763	     45.81960099	      0.00000000	      0.00000000	      6.21548926	    -16.34686419	     -2.73707275	     63.31818457	     46.59228416	      0.00000000	      0.00000000
     34.22757143	     -4.45909253	     -5.58373757	     -3.48007666	      0.84409136	      0.93390160	      0.43960391	     30.41728286	     -2.32647013	     -8.07337380	     36.06247881	     36.06247881	      4.80238188	     -9.49568356	      1.23909048	     11.06195113	     -5.54548227	     -9.38361003	     19.82883676	     19.82883676	     15.24668904	     -8.97498239	     -0.98610730	    -10.44654591	      6.18727474	      0.10843070	     -9.19341864	    -13.30667709	     -0.94550292	     32.03852738	     45.82415980	      0.00000000	      0.00000000	      6.89944748	    -16.58118909	     -2.94180416	     64.13796300	     46.62846220	      0.00000000	      0.00000000
